<svg width="40" height="40" viewBox="0 0 40 40" fill="none" xmlns="http://www.w3.org/2000/svg">
    <defs>
        <clipPath id="clip0_21_601">
            <rect width="40" height="40" rx="8" fill="white"/>
        </clipPath>
    </defs>
    <g clip-path="url(#clip0_21_601)">
        <rect width="40" height="40" fill="#EE6E37"/>
        <path fill-rule="evenodd" clip-rule="evenodd" d="M35.8548 0.988251C34.7115 0.358379 33.3976 -0.5 32 -0.5L20.0266 0C14.4739 3.92702 11.3194 6.39611 9.19988 9.23002C4.01067 16.1683 2.41056 25.1529 4.88534 33.4561C5.48798 35.478 6.48063 37.5052 8.00107 40H19.7917C16.0858 34.5881 14.8752 32.4982 14.3224 30.6434C12.7374 25.3256 13.7622 19.5715 17.0856 15.1278C18.5387 13.185 21.0892 11.2525 30.2328 4.87333C32.4668 3.31481 34.3105 2.03787 35.8548 0.988251ZM36.7087 1.53188C35.0428 2.64348 33.1576 3.95872 30.9624 5.49019L30.2053 6.01841C22.4313 11.442 18.5444 14.1537 16.6306 17.7382C14.9472 20.8911 14.3052 24.4961 14.7966 28.0363C15.2581 31.3616 17.1894 34.5929 20.9056 40H32C32.2935 40 32.5833 39.9842 32.8686 39.9534C32.6196 39.597 32.3619 39.2277 32.0948 38.8448L31.5666 38.0877C28.7618 34.0675 27.0034 31.5336 25.8272 29.5153C24.7092 27.5966 24.5797 26.8945 24.5503 26.6826C24.3448 25.2021 24.6133 23.6946 25.3173 22.3761C25.4181 22.1873 25.7819 21.5731 27.4936 20.1584C29.2943 18.6702 31.8194 16.8992 35.8396 14.0945L36.5968 13.5663C37.87 12.678 38.9941 11.8947 40 11.2016L40.5 8C41 5.5 39 2.5 36.7087 1.53188Z" fill="#F6F8FB"/>
    </g>
</svg>
