<svg width="24" height="24" viewBox="0 0 24 24" fill="none" xmlns="http://www.w3.org/2000/svg">
<path d="M5.3 20.5C4.8 20.5 4.375 20.325 4.025 19.975C3.675 19.625 3.5 19.2 3.5 18.7V7.075C3.5 6.85833 3.52933 6.66667 3.588 6.5C3.646 6.33333 3.73333 6.175 3.85 6.025L5.175 4.425C5.29167 4.275 5.44167 4.16667 5.625 4.1C5.80833 4.03333 6 4 6.2 4H17.8C18 4 18.1917 4.03333 18.375 4.1C18.5583 4.16667 18.7083 4.275 18.825 4.425L20.125 6.025C20.2417 6.175 20.3333 6.33333 20.4 6.5C20.4667 6.66667 20.5 6.85833 20.5 7.075V18.7C20.5 19.2 20.325 19.625 19.975 19.975C19.625 20.325 19.2 20.5 18.7 20.5H5.3ZM5.4 6.5H18.6L17.75 5.5H6.25L5.4 6.5ZM12 17.6L15.65 13.95L14.6 12.9L12.75 14.75V10.3H11.25V14.75L9.4 12.9L8.35 13.95L12 17.6Z" fill="#132339"/>
</svg>
