<svg width="24" height="24" viewBox="0 0 24 24" fill="none" xmlns="http://www.w3.org/2000/svg">
    <path
        d="M11.2925 16.4625L7.41246 12.5825L11.2925 8.7025C11.6825 8.3125 11.6825 7.6825 11.2925 7.2925C10.9025 6.9025 10.2725 6.9025 9.88246 7.2925L5.29246 11.8825C4.90246 12.2725 4.90246 12.9025 5.29246 13.2925L9.88246 17.8825C10.2725 18.2725 10.9025 18.2725 11.2925 17.8825C11.6725 17.4925 11.6825 16.8525 11.2925 16.4625Z"
        fill="#132339" />
    <path
        d="M17.8774 16.4625L13.9974 12.5825L17.8774 8.7025C18.2674 8.3125 18.2674 7.6825 17.8774 7.2925C17.4874 6.9025 16.8574 6.9025 16.4674 7.2925L11.8774 11.8825C11.4874 12.2725 11.4874 12.9025 11.8774 13.2925L16.4674 17.8825C16.8574 18.2725 17.4874 18.2725 17.8774 17.8825C18.2574 17.4925 18.2674 16.8525 17.8774 16.4625Z"
        fill="#132339" />
</svg>
