<svg width="24" height="24" viewBox="0 0 24 24" fill="none" xmlns="http://www.w3.org/2000/svg">
    <defs>
        <clipPath id="clip0_2110_459">
            <rect width="24" height="24" fill="white" />
        </clipPath>
    </defs>
    <g clip-path="url(#clip0_2110_459)">
        <path
            d="M22.9091 0H1.09091C0.488417 0 0 0.488417 0 1.09091V22.9091C0 23.5116 0.488417 24 1.09091 24H22.9091C23.5116 24 24 23.5116 24 22.9091V1.09091C24 0.488417 23.5116 0 22.9091 0Z"
            fill="#132339" />
        <path
            d="M20.089 5.21971C20.8368 4.47199 21.2106 4.09814 21.2359 3.77717C21.2578 3.49866 21.145 3.2265 20.9326 3.04507C20.6878 2.83597 20.1591 2.83597 19.1017 2.83597H4.23279C3.74402 2.83597 3.49963 2.83597 3.31295 2.93108C3.14873 3.01476 3.01521 3.14827 2.93154 3.31249C2.83643 3.49918 2.83643 3.74356 2.83643 4.23233V5.80324C2.83643 6.29201 2.83643 6.5364 2.93154 6.72309C3.01521 6.8873 3.14873 7.02082 3.31295 7.10449C3.49963 7.19961 3.74402 7.19961 4.23279 7.19961H17.5308C17.7442 7.19961 17.8509 7.19961 17.9514 7.1755C18.0404 7.15411 18.1256 7.11886 18.2036 7.071C18.2918 7.01703 18.3672 6.94156 18.5181 6.79062L20.089 5.21971Z"
            fill="white" />
        <path
            d="M5.22017 20.0889C4.47245 20.8366 4.0986 21.2105 3.77763 21.2358C3.49912 21.2577 3.22696 21.1449 3.04553 20.9325C2.83643 20.6877 2.83643 20.159 2.83643 19.1016V10.7782C2.83643 10.2894 2.83643 10.045 2.93154 9.85835C3.01521 9.69414 3.14873 9.56062 3.31295 9.47695C3.49963 9.38184 3.74402 9.38184 4.23279 9.38184H5.8037C6.29247 9.38184 6.53685 9.38184 6.72354 9.47695C6.88776 9.56062 7.02127 9.69414 7.10495 9.85835C7.20006 10.045 7.20006 10.2894 7.20006 10.7782V17.5307C7.20006 17.7442 7.20006 17.8508 7.17595 17.9513C7.15457 18.0403 7.11931 18.1255 7.07145 18.2035C7.01749 18.2917 6.94202 18.3671 6.79108 18.518L5.22017 20.0889Z"
            fill="white" />
        <path
            d="M9.38184 12.5561C9.38184 13.6135 9.38184 14.1423 9.59094 14.3871C9.77237 14.5995 10.0445 14.7123 10.323 14.6904C10.644 14.665 11.0179 14.2912 11.7656 13.5435L13.5435 11.7656C14.2912 11.0179 14.665 10.644 14.6904 10.323C14.7123 10.0445 14.5995 9.77237 14.3871 9.59094C14.1423 9.38184 13.6135 9.38184 12.5561 9.38184H10.7782C10.2894 9.38184 10.045 9.38184 9.85835 9.47695C9.69414 9.56062 9.56062 9.69414 9.47695 9.85835C9.38184 10.045 9.38184 10.2894 9.38184 10.7782V12.5561Z"
            fill="white" />
    </g>
</svg>
