<svg width="24" height="24" viewBox="0 0 24 24" fill="none" xmlns="http://www.w3.org/2000/svg">
    <path
        d="M11.8774 8.7125L15.7574 12.5925L11.8774 16.4725C11.4874 16.8625 11.4874 17.4925 11.8774 17.8825C12.2674 18.2725 12.8974 18.2725 13.2874 17.8825L17.8774 13.2925C18.2674 12.9025 18.2674 12.2725 17.8774 11.8825L13.2874 7.2925C12.8974 6.9025 12.2674 6.9025 11.8774 7.2925C11.4974 7.6825 11.4874 8.3225 11.8774 8.7125Z"
        fill="#132339" />
    <path
        d="M5.29246 8.7125L9.17246 12.5925L5.29246 16.4725C4.90246 16.8625 4.90246 17.4925 5.29246 17.8825C5.68246 18.2725 6.31246 18.2725 6.70246 17.8825L11.2925 13.2925C11.6825 12.9025 11.6825 12.2725 11.2925 11.8825L6.70246 7.2925C6.31246 6.9025 5.68246 6.9025 5.29246 7.2925C4.91246 7.6825 4.90246 8.3225 5.29246 8.7125Z"
        fill="#132339" />
</svg>
