<svg width="24" height="24" viewBox="0 0 24 24" fill="none" xmlns="http://www.w3.org/2000/svg">
    <rect width="24" height="24" rx="8" fill="#132339"/>
    <path d="M14.8562 9.54337C14.789 9.44076 14.7076 9.37082 14.6318 9.32349C14.6314 9.19613 14.623 9.016 14.5923 8.80826C14.613 8.56039 14.6853 7.19554 13.8418 6.58018C13.3215 6.2006 12.7422 6 12.1665 6C11.6986 6 11.253 6.13165 10.9117 6.37068C10.6043 6.586 10.435 6.8202 10.3454 6.98506C10.0803 6.99434 9.53116 7.10133 9.28827 7.79455C9.05848 8.45027 9.24402 8.85537 9.38049 9.04312C9.37157 9.15171 9.36835 9.24718 9.36813 9.32344C9.29232 9.37076 9.21092 9.4407 9.14376 9.54331C8.99182 9.77548 8.96598 10.0868 9.06691 10.4689C9.25561 11.1832 9.69596 11.3404 9.93092 11.372C10.0756 11.6585 10.3937 12.2439 10.712 12.5381C10.8392 12.6556 11.0045 12.7547 11.2033 12.8329C11.4571 12.9326 11.7252 12.9831 12 12.9831C12.2747 12.9831 12.5428 12.9326 12.7966 12.8329C12.9955 12.7547 13.1608 12.6556 13.2879 12.5381C13.6062 12.2439 13.9243 11.6585 14.069 11.372C14.3039 11.3404 14.7443 11.1832 14.933 10.4688C15.034 10.0869 15.0081 9.77548 14.8562 9.54337ZM14.3965 10.33C14.2815 10.7654 14.076 10.8304 13.9636 10.8304C13.9556 10.8304 13.9496 10.83 13.9461 10.8297C13.8178 10.7976 13.6991 10.8644 13.643 10.9839C13.5332 11.2175 13.1873 11.8802 12.9096 12.1368C12.8332 12.2074 12.7264 12.2699 12.592 12.3227C12.2152 12.4708 11.7847 12.4708 11.4079 12.3227C11.2736 12.2699 11.1667 12.2074 11.0904 12.1368C10.8127 11.8802 10.4668 11.2175 10.357 10.9839C10.3103 10.8845 10.2205 10.8218 10.1177 10.8218C10.0969 10.8218 10.0755 10.8243 10.0538 10.8298C10.0503 10.8301 10.0443 10.8305 10.0363 10.8305C9.92404 10.8305 9.71848 10.7654 9.60341 10.3301C9.5468 10.1158 9.5473 9.9449 9.60474 9.84894C9.63818 9.79316 9.68565 9.77438 9.70118 9.76955C9.84996 9.75358 9.93957 9.62462 9.92715 9.476C9.92687 9.47238 9.91717 9.34479 9.92948 9.15062C10.1203 9.06942 10.4252 8.90928 10.6822 8.63445C10.813 8.49451 10.9087 8.32306 10.9769 8.16578C11.1627 8.31598 11.4258 8.49248 11.7738 8.64499C12.37 8.9062 13.5615 9.03044 14.0644 9.07288C14.0852 9.30988 14.0731 9.47161 14.0727 9.47546C14.0597 9.62451 14.1494 9.75358 14.2987 9.76955C14.3142 9.77438 14.3617 9.79321 14.3952 9.84894C14.4527 9.94484 14.4532 10.1157 14.3965 10.33ZM16.1746 13.9961L13.7505 13.0362C13.6807 13.0086 13.6027 13.0102 13.534 13.0406C13.4655 13.071 13.4123 13.1277 13.3868 13.1977L12.7774 14.8656L12.6568 14.5222L12.8487 14.0576C12.8837 13.9729 12.8738 13.8766 12.8223 13.8006C12.7708 13.7247 12.6845 13.6791 12.5921 13.6791H11.4079C11.3155 13.6791 11.2292 13.7247 11.1777 13.8006C11.1262 13.8766 11.1163 13.9729 11.1513 14.0576L11.3432 14.5222L11.2226 14.8656L10.6132 13.1977C10.5877 13.1277 10.5345 13.071 10.466 13.0406C10.3973 13.0101 10.3193 13.0086 10.2496 13.0362L7.82537 13.9961C7.08097 14.2908 6.59998 14.9943 6.59998 15.7881V17.7255C6.59998 17.8771 6.72413 18 6.87724 18H17.1227C17.2758 18 17.4 17.8771 17.4 17.7255V15.7881C17.4 14.9943 16.919 14.2909 16.1746 13.9961ZM16.0903 16.5801C16.0903 16.7317 15.9662 16.8546 15.8131 16.8546H13.9515C13.7984 16.8546 13.6743 16.7317 13.6743 16.5801V15.7242C13.6743 15.5726 13.7984 15.4497 13.9515 15.4497H15.8131C15.9662 15.4497 16.0903 15.5726 16.0903 15.7242V16.5801Z" fill="white"/>
</svg>
