<svg width="20" height="20" viewBox="0 0 20 20" fill="none" xmlns="http://www.w3.org/2000/svg">
<path d="M10 18.3333C10.9167 18.3333 11.6667 17.5833 11.6667 16.6667H8.33333C8.33333 17.5833 9.075 18.3333 10 18.3333ZM15 13.3333V9.16667C15 6.60833 13.6333 4.46667 11.25 3.9V3.33333C11.25 2.64167 10.6917 2.08333 10 2.08333C9.30833 2.08333 8.75 2.64167 8.75 3.33333V3.9C6.35833 4.46667 5 6.6 5 9.16667V13.3333L3.925 14.4083C3.4 14.9333 3.76666 15.8333 4.50833 15.8333H15.4833C16.225 15.8333 16.6 14.9333 16.075 14.4083L15 13.3333Z" fill="#132339"/>
</svg>
