<svg width="24" height="24" viewBox="0 0 24 24" fill="none" xmlns="http://www.w3.org/2000/svg">
<path fill-rule="evenodd" clip-rule="evenodd" d="M8 10C7.52038 10 7.21074 9.99946 6.97376 9.98329C6.74576 9.96773 6.65893 9.94112 6.61732 9.92388C6.37229 9.82239 6.17761 9.62771 6.07612 9.38268C6.05888 9.34107 6.03227 9.25424 6.01671 9.02624C6.00054 8.78926 6 8.47962 6 8C6 7.52038 6.00054 7.21074 6.01671 6.97376C6.03227 6.74576 6.05888 6.65893 6.07612 6.61732C6.17761 6.37229 6.37229 6.17761 6.61732 6.07612C6.65893 6.05888 6.74576 6.03227 6.97376 6.01671C7.21074 6.00054 7.52038 6 8 6C8.47962 6 8.78926 6.00054 9.02624 6.01671C9.25424 6.03227 9.34107 6.05888 9.38268 6.07612C9.62771 6.17761 9.82239 6.37229 9.92388 6.61732C9.94112 6.65893 9.96773 6.74576 9.98329 6.97376C9.99946 7.21074 10 7.52038 10 8C10 8.47962 9.99946 8.78926 9.98329 9.02624C9.96773 9.25424 9.94112 9.34107 9.92388 9.38268C9.82239 9.62771 9.62771 9.82239 9.38268 9.92388C9.34107 9.94112 9.25424 9.96773 9.02624 9.98329C8.78926 9.99946 8.47962 10 8 10ZM5 8C5 7.06812 5 6.60218 5.15224 6.23463C5.35523 5.74458 5.74458 5.35523 6.23463 5.15224C6.60218 5 7.06812 5 8 5C8.93188 5 9.39782 5 9.76537 5.15224C10.2554 5.35523 10.6448 5.74458 10.8478 6.23463C11 6.60218 11 7.06812 11 8C11 8.93188 11 9.39782 10.8478 9.76537C10.6448 10.2554 10.2554 10.6448 9.76537 10.8478C9.39782 11 8.93188 11 8 11C7.06812 11 6.60218 11 6.23463 10.8478C5.74458 10.6448 5.35523 10.2554 5.15224 9.76537C5 9.39782 5 8.93188 5 8ZM5.15224 14.2346C5 14.6022 5 15.0681 5 16C5 16.9319 5 17.3978 5.15224 17.7654C5.35523 18.2554 5.74458 18.6448 6.23463 18.8478C6.60218 19 7.06812 19 8 19C8.93188 19 9.39782 19 9.76537 18.8478C10.2554 18.6448 10.6448 18.2554 10.8478 17.7654C11 17.3978 11 16.9319 11 16C11 15.0681 11 14.6022 10.8478 14.2346C10.6448 13.7446 10.2554 13.3552 9.76537 13.1522C9.39782 13 8.93188 13 8 13C7.06812 13 6.60218 13 6.23463 13.1522C5.74458 13.3552 5.35523 13.7446 5.15224 14.2346ZM13 8C13 7.06812 13 6.60218 13.1522 6.23463C13.3552 5.74458 13.7446 5.35523 14.2346 5.15224C14.6022 5 15.0681 5 16 5C16.9319 5 17.3978 5 17.7654 5.15224C18.2554 5.35523 18.6448 5.74458 18.8478 6.23463C19 6.60218 19 7.06812 19 8C19 8.93188 19 9.39782 18.8478 9.76537C18.6448 10.2554 18.2554 10.6448 17.7654 10.8478C17.3978 11 16.9319 11 16 11C15.0681 11 14.6022 11 14.2346 10.8478C13.7446 10.6448 13.3552 10.2554 13.1522 9.76537C13 9.39782 13 8.93188 13 8ZM13.1522 14.2346C13 14.6022 13 15.0681 13 16C13 16.9319 13 17.3978 13.1522 17.7654C13.3552 18.2554 13.7446 18.6448 14.2346 18.8478C14.6022 19 15.0681 19 16 19C16.9319 19 17.3978 19 17.7654 18.8478C18.2554 18.6448 18.6448 18.2554 18.8478 17.7654C19 17.3978 19 16.9319 19 16C19 15.0681 19 14.6022 18.8478 14.2346C18.6448 13.7446 18.2554 13.3552 17.7654 13.1522C17.3978 13 16.9319 13 16 13C15.0681 13 14.6022 13 14.2346 13.1522C13.7446 13.3552 13.3552 13.7446 13.1522 14.2346Z" fill="#132339"/>
</svg>
