<svg width="24" height="24" viewBox="0 0 24 24" fill="none" xmlns="http://www.w3.org/2000/svg">
<path fill-rule="evenodd" clip-rule="evenodd" d="M5 3C3.89543 3 3 3.89543 3 5V19C3 20.1046 3.89543 21 5 21H19C20.1046 21 21 20.1046 21 19V5C21 3.89543 20.1046 3 19 3H5ZM5 7C5 6.44771 5.44771 6 6 6H18C18.5523 6 19 6.44771 19 7V13C19 13.5523 18.5523 14 18 14H6C5.44771 14 5 13.5523 5 13V7ZM5 17C5 16.4477 5.44771 16 6 16H18C18.5523 16 19 16.4477 19 17C19 17.5523 18.5523 18 18 18H6C5.44771 18 5 17.5523 5 17Z" fill="#132339"/>
</svg>
