<svg width="24" height="24" viewBox="0 0 24 24" fill="none" xmlns="http://www.w3.org/2000/svg">
<path d="M12 13.5C13.0334 13.5 13.9084 13.1417 14.625 12.425C15.3417 11.7083 15.7 10.8333 15.7 9.79999C15.7 8.76666 15.3417 7.89583 14.625 7.18749C13.9084 6.47916 13.0334 6.12499 12 6.12499C10.9667 6.12499 10.0917 6.47916 9.37502 7.18749C8.65836 7.89583 8.30002 8.76666 8.30002 9.79999C8.30002 10.8333 8.65836 11.7083 9.37502 12.425C10.0917 13.1417 10.9667 13.5 12 13.5ZM5.30002 21.85C4.41669 21.85 3.67086 21.5458 3.06252 20.9375C2.45419 20.3292 2.15002 19.5833 2.15002 18.7V5.29999C2.15002 4.41666 2.45419 3.67083 3.06252 3.06249C3.67086 2.45416 4.41669 2.14999 5.30002 2.14999H18.7C19.5834 2.14999 20.3292 2.45416 20.9375 3.06249C21.5459 3.67083 21.85 4.41666 21.85 5.29999V18.7C21.85 19.5833 21.5459 20.3292 20.9375 20.9375C20.3292 21.5458 19.5834 21.85 18.7 21.85H5.30002ZM5.30002 17.7C5.30002 18.2523 5.74774 18.7 6.30002 18.7H17.7C18.2523 18.7 18.7 18.2523 18.7 17.7V17.4491C18.7 17.1634 18.5796 16.8893 18.358 16.709C17.5496 16.0509 16.6677 15.5396 15.7125 15.175C14.6209 14.7583 13.3834 14.55 12 14.55C10.6167 14.55 9.37919 14.7667 8.28752 15.2C7.33223 15.5792 6.45033 16.0988 5.64181 16.7588C5.42053 16.9394 5.30002 17.2134 5.30002 17.4991V17.7Z" fill="#132339"/>
</svg>
