<svg width="20" height="20" viewBox="0 0 20 20" fill="none" xmlns="http://www.w3.org/2000/svg">
<path d="M10 0C4.48618 0 0 4.48623 0 10.0001C0 15.5142 4.48618 20 10 20C15.5138 20 20 15.5142 20 9.99988C20 4.48599 15.5138 0 10 0ZM10.0112 3.5253C12.8539 3.5253 15.1582 5.82943 15.1582 8.67217C15.1582 11.5149 12.8539 13.8193 10.0112 13.8193C7.16873 13.8193 4.86439 11.5152 4.86439 8.67217C4.86439 5.82967 7.16873 3.5253 10.0112 3.5253ZM10 18.7188C7.53622 18.7188 5.30934 17.6902 3.72259 16.0412C4.44233 15.0695 5.39681 14.2697 6.50977 13.7239C7.50477 14.4151 8.71068 14.8217 10.011 14.8217C11.311 14.8217 12.5172 14.4151 13.5119 13.7239C14.6208 14.2669 15.5715 15.0621 16.2903 16.0276C14.7023 17.6844 12.4704 18.7188 10 18.7188Z" fill="#132339"/>
</svg>
