<svg width="24" height="24" viewBox="0 0 24 24" fill="none" xmlns="http://www.w3.org/2000/svg">
<path d="M6 19C6 20.1 6.9 21 8 21H16C17.1 21 18 20.1 18 19V7.5C18 7.22386 17.7761 7 17.5 7H6.5C6.22386 7 6 7.22386 6 7.5V19ZM19 4.5C19 4.22386 18.7761 4 18.5 4H15.9142C15.649 4 15.3946 3.89464 15.2071 3.70711L14.7929 3.29289C14.6054 3.10536 14.351 3 14.0858 3H9.91421C9.649 3 9.39464 3.10536 9.20711 3.29289L8.79289 3.70711C8.60536 3.89464 8.351 4 8.08579 4H5.5C5.22386 4 5 4.22386 5 4.5V5.5C5 5.77614 5.22386 6 5.5 6H18.5C18.7761 6 19 5.77614 19 5.5V4.5Z" fill="#132339"/>
</svg>
