<svg width="24" height="24" viewBox="0 0 24 24" fill="none" xmlns="http://www.w3.org/2000/svg">
<path d="M14.3511 5.35921L3.3468 16.3643C3.29144 16.4198 3.25146 16.4899 3.23243 16.5653L2.0127 21.461C1.97622 21.6083 2.01953 21.7651 2.12708 21.8726C2.20846 21.954 2.31934 21.999 2.43276 21.999C2.4675 21.999 2.50304 21.9948 2.53762 21.986L7.43332 20.7662C7.50962 20.7471 7.57894 20.7073 7.6343 20.6519L18.6395 9.64766L14.3511 5.35921Z" fill="#132339"/>
<path d="M21.3657 3.8587L20.1408 2.63375C19.3221 1.81505 17.8952 1.81584 17.0775 2.63375L15.577 4.13424L19.8652 8.42253L21.3657 6.92204C21.7747 6.51324 21.9999 5.96914 21.9999 5.39045C21.9999 4.81176 21.7747 4.26765 21.3657 3.8587Z" fill="#132339"/>
</svg>
