<svg width="24" height="24" viewBox="0 0 24 24" fill="none" xmlns="http://www.w3.org/2000/svg">
<path d="M16.7128 7.90561C16.602 7.7346 16.4677 7.61803 16.3426 7.53916C16.342 7.32688 16.328 7.02667 16.2775 6.68044C16.3116 6.26732 16.4308 3.99257 15.039 2.96696C14.1806 2.33434 13.2247 2 12.2748 2C11.5027 2 10.7674 2.21941 10.2042 2.6178C9.69705 2.97666 9.41771 3.36699 9.26984 3.64176C8.83248 3.65723 7.92637 3.83556 7.5256 4.99091C7.14643 6.08378 7.45259 6.75895 7.67776 7.07187C7.66303 7.25286 7.65773 7.41197 7.65736 7.53907C7.53228 7.61794 7.39796 7.73451 7.28716 7.90552C7.03645 8.29247 6.99381 8.81136 7.16034 9.4481C7.47171 10.6387 8.1983 10.9007 8.58598 10.9533C8.82479 11.4308 9.34963 12.4065 9.87483 12.8968C10.0846 13.0926 10.3574 13.2578 10.6855 13.3881C11.1043 13.5543 11.5466 13.6386 12 13.6386C12.4534 13.6386 12.8957 13.5543 13.3145 13.3881C13.6426 13.2578 13.9153 13.0926 14.1251 12.8968C14.6503 12.4065 15.1752 11.4308 15.414 10.9533C15.8016 10.9007 16.5282 10.6386 16.8396 9.44801C17.0062 8.81145 16.9635 8.29247 16.7128 7.90561ZM15.9544 9.21661C15.7646 9.94237 15.4254 10.0507 15.2401 10.0507C15.2269 10.0507 15.217 10.05 15.2111 10.0495C14.9994 9.99599 14.8036 10.1073 14.711 10.3064C14.5298 10.6959 13.9591 11.8003 13.5008 12.228C13.3748 12.3456 13.1985 12.4499 12.9769 12.5378C12.3551 12.7846 11.6448 12.7846 11.0231 12.5378C10.8014 12.4499 10.6251 12.3456 10.4991 12.228C10.0409 11.8003 9.47013 10.6959 9.28897 10.3064C9.21192 10.1408 9.06379 10.0363 8.89424 10.0363C8.85984 10.0363 8.82452 10.0406 8.78874 10.0496C8.78289 10.0502 8.773 10.0508 8.75992 10.0508C8.57464 10.0508 8.23545 9.94237 8.04559 9.21679C7.95217 8.85967 7.95299 8.57483 8.04778 8.41489C8.10296 8.32193 8.18128 8.29064 8.2069 8.28259C8.45239 8.25596 8.60026 8.04103 8.57976 7.79334C8.5793 7.7873 8.56329 7.57466 8.5836 7.25103C8.89845 7.1157 9.40151 6.8488 9.82561 6.39076C10.0415 6.15752 10.1994 5.87177 10.3118 5.60963C10.6184 5.85997 11.0525 6.15414 11.6269 6.40832C12.6106 6.84367 14.5765 7.05074 15.4064 7.12146C15.4407 7.51647 15.4207 7.78602 15.4201 7.79243C15.3985 8.04085 15.5467 8.25596 15.793 8.28259C15.8186 8.29064 15.8969 8.32202 15.9521 8.41489C16.047 8.57474 16.0478 8.85958 15.9544 9.21661ZM18.8882 15.3268L14.8883 13.7269C14.7732 13.681 14.6445 13.6837 14.5312 13.7343C14.4181 13.7851 14.3304 13.8796 14.2883 13.9961L13.2828 16.7761L13.0837 16.2036L13.4005 15.4293C13.4581 15.2882 13.4418 15.1276 13.3568 15.001C13.2718 14.8744 13.1294 14.7985 12.977 14.7985H11.0231C10.8706 14.7985 10.7282 14.8744 10.6432 15.001C10.5582 15.1276 10.542 15.2882 10.5996 15.4293L10.9164 16.2036L10.7173 16.7761L9.71178 13.9961C9.66969 13.8796 9.58195 13.785 9.46885 13.7343C9.35558 13.6836 9.22675 13.6809 9.11173 13.7269L5.11177 15.3268C3.88349 15.8181 3.08983 16.9904 3.08983 18.3134V21.5425C3.08983 21.7952 3.29469 22 3.54732 22H20.4527C20.7053 22 20.9101 21.7952 20.9101 21.5425V18.3134C20.9101 16.9904 20.1165 15.8182 18.8882 15.3268ZM18.7492 19.6335C18.7492 19.8862 18.5443 20.091 18.2917 20.091H15.2201C14.9675 20.091 14.7626 19.8862 14.7626 19.6335V18.207C14.7626 17.9543 14.9675 17.7495 15.2201 17.7495H18.2917C18.5443 17.7495 18.7492 17.9543 18.7492 18.207V19.6335Z" fill="#132339"/>
</svg>
