<svg width="24" height="24" viewBox="0 0 24 24" fill="none" xmlns="http://www.w3.org/2000/svg">
<path d="M5.5 22C5.1 22 4.75 21.85 4.45 21.55C4.15 21.25 4 20.9 4 20.5V3.5C4 3.1 4.15 2.75 4.45 2.45C4.75 2.15 5.1 2 5.5 2H13.6966C14.227 2 14.7357 2.21071 15.1108 2.58579L19.4142 6.88921C19.7893 7.26429 20 7.77299 20 8.30343V20.5C20 20.9 19.85 21.25 19.55 21.55C19.25 21.85 18.9 22 18.5 22H5.5ZM14.275 8.15C13.9989 8.15 13.775 7.92614 13.775 7.65V4C13.775 3.72386 13.5511 3.5 13.275 3.5H6C5.72386 3.5 5.5 3.72386 5.5 4V20C5.5 20.2761 5.72386 20.5 6 20.5H18C18.2761 20.5 18.5 20.2761 18.5 20V8.65C18.5 8.37386 18.2761 8.15 18 8.15H14.275Z" fill="#132339"/>
<path fill-rule="evenodd" clip-rule="evenodd" d="M14.4584 11.1682C14.1832 11.1912 13.9788 11.4329 14.0017 11.708C14.0247 11.9832 14.2664 12.1877 14.5416 12.1647L15.3102 12.1005L12.9125 14.8408L10.2774 13.084C10.0686 12.9448 9.78896 12.9819 9.62372 13.1708L7.12372 16.1708C6.94188 16.3786 6.96294 16.6945 7.17075 16.8763C7.37857 17.0582 7.69445 17.0371 7.8763 16.8293L10.0875 14.1593L12.7227 15.9161C12.9314 16.0553 13.2111 16.0181 13.3763 15.8293L16.0935 12.7239L16.1612 13.5347C16.1842 13.8099 16.4259 14.0143 16.7011 13.9914C16.9763 13.9684 17.1807 13.7267 17.1578 13.4515L16.9983 11.5417C17.011 11.389 16.9535 11.2324 16.8293 11.1238C16.7343 11.0406 16.6167 10.9999 16.4996 11C16.4837 10.9998 16.4677 11.0004 16.4515 11.0018L14.4584 11.1682Z" fill="#132339"/>
</svg>
