<svg width="24" height="24" viewBox="0 0 24 24" fill="none" xmlns="http://www.w3.org/2000/svg">
<path fill-rule="evenodd" clip-rule="evenodd" d="M4 8C4.55228 8 5 7.55228 5 7C5 6.44772 4.55228 6 4 6C3.44772 6 3 6.44772 3 7C3 7.55228 3.44772 8 4 8ZM4 13C4.55228 13 5 12.5523 5 12C5 11.4477 4.55228 11 4 11C3.44772 11 3 11.4477 3 12C3 12.5523 3.44772 13 4 13ZM5 17C5 17.5523 4.55228 18 4 18C3.44772 18 3 17.5523 3 17C3 16.4477 3.44772 16 4 16C4.55228 16 5 16.4477 5 17ZM8 6C7.44772 6 7 6.44772 7 7C7 7.55228 7.44772 8 8 8H20C20.5523 8 21 7.55228 21 7C21 6.44772 20.5523 6 20 6H8ZM7 12C7 11.4477 7.44772 11 8 11H20C20.5523 11 21 11.4477 21 12C21 12.5523 20.5523 13 20 13H8C7.44772 13 7 12.5523 7 12ZM8 16C7.44772 16 7 16.4477 7 17C7 17.5523 7.44772 18 8 18H20C20.5523 18 21 17.5523 21 17C21 16.4477 20.5523 16 20 16H8Z" fill="#132339"/>
</svg>
