<svg width="162" height="104" viewBox="0 0 162 104" fill="none" xmlns="http://www.w3.org/2000/svg">
<g clip-path="url(#clip0_5067_2064)">
<ellipse cx="18.5" cy="19" rx="18.5" ry="19" transform="matrix(-1 0 0 1 158 -15.0001)" fill="url(#paint0_linear_5067_2064)" fill-opacity="0.2"/>
<ellipse cx="18.5" cy="19.5" rx="18.5" ry="19.5" transform="matrix(-1 0 0 1 158 77)" fill="url(#paint1_linear_5067_2064)" fill-opacity="0.2"/>
<ellipse cx="18.5" cy="19" rx="18.5" ry="19" transform="matrix(-1 0 0 1 121 54)" fill="url(#paint2_linear_5067_2064)" fill-opacity="0.2"/>
<circle cx="18.5" cy="18.5" r="18.5" transform="matrix(-1 0 0 1 158 32)" fill="url(#paint3_linear_5067_2064)" fill-opacity="0.2"/>
<circle cx="18.5" cy="18.5" r="18.5" transform="matrix(-1 0 0 1 121 8)" fill="url(#paint4_linear_5067_2064)" fill-opacity="0.2"/>
</g>
<defs>
<linearGradient id="paint0_linear_5067_2064" x1="18.5" y1="0" x2="18.5" y2="38" gradientUnits="userSpaceOnUse">
<stop stop-color="white"/>
<stop offset="1" stop-color="white" stop-opacity="0"/>
</linearGradient>
<linearGradient id="paint1_linear_5067_2064" x1="18.5" y1="0" x2="18.5" y2="39" gradientUnits="userSpaceOnUse">
<stop stop-color="white"/>
<stop offset="1" stop-color="white" stop-opacity="0"/>
</linearGradient>
<linearGradient id="paint2_linear_5067_2064" x1="18.5" y1="0" x2="18.5" y2="38" gradientUnits="userSpaceOnUse">
<stop stop-color="white"/>
<stop offset="1" stop-color="white" stop-opacity="0"/>
</linearGradient>
<linearGradient id="paint3_linear_5067_2064" x1="18.5" y1="0" x2="18.5" y2="37" gradientUnits="userSpaceOnUse">
<stop stop-color="white"/>
<stop offset="1" stop-color="white" stop-opacity="0"/>
</linearGradient>
<linearGradient id="paint4_linear_5067_2064" x1="18.5" y1="0" x2="18.5" y2="37" gradientUnits="userSpaceOnUse">
<stop stop-color="white"/>
<stop offset="1" stop-color="white" stop-opacity="0"/>
</linearGradient>
<clipPath id="clip0_5067_2064">
<rect width="162" height="104" fill="white"/>
</clipPath>
</defs>
</svg>
