<svg width="24" height="24" viewBox="0 0 24 24" fill="none" xmlns="http://www.w3.org/2000/svg">
<path fill-rule="evenodd" clip-rule="evenodd" d="M12.5893 2.42988C12.2382 2.17375 11.7618 2.17375 11.4107 2.42988L9.63756 3.72329C9.46589 3.84851 9.25881 3.9158 9.04633 3.9154L6.8516 3.91122C6.41697 3.91039 6.03157 4.1904 5.89805 4.60401L5.22382 6.69261C5.15854 6.89482 5.03056 7.07098 4.85842 7.19554L3.08039 8.48219C2.72828 8.73699 2.58107 9.19005 2.71617 9.60315L3.39835 11.6892C3.46439 11.8911 3.46439 12.1089 3.39835 12.3108L2.71617 14.3968C2.58107 14.8099 2.72828 15.263 3.08039 15.5178L4.85842 16.8045C5.03056 16.929 5.15854 17.1052 5.22382 17.3074L5.89805 19.396C6.03157 19.8096 6.41697 20.0896 6.8516 20.0888L9.04633 20.0846C9.25881 20.0842 9.46589 20.1515 9.63756 20.2767L11.4107 21.5701C11.7618 21.8263 12.2382 21.8263 12.5893 21.5701L14.3624 20.2767C14.5341 20.1515 14.7412 20.0842 14.9537 20.0846L17.1484 20.0888C17.583 20.0896 17.9684 19.8096 18.1019 19.396L18.7762 17.3074C18.8415 17.1052 18.9694 16.929 19.1416 16.8045L20.9196 15.5178C21.2717 15.263 21.4189 14.8099 21.2838 14.3968L20.6016 12.3108C20.5356 12.1089 20.5356 11.8911 20.6016 11.6892L21.2838 9.60315C21.4189 9.19005 21.2717 8.73699 20.9196 8.48219L19.1416 7.19554C18.9694 7.07098 18.8415 6.89482 18.7762 6.69261L18.1019 4.60401C17.9684 4.1904 17.583 3.91039 17.1484 3.91122L14.9537 3.9154C14.7412 3.9158 14.5341 3.84851 14.3624 3.72329L12.5893 2.42988ZM12.4777 8.54591C12.3325 8.07607 11.6675 8.07607 11.5223 8.5459L10.9285 10.4673C10.8638 10.6768 10.6701 10.8197 10.4508 10.8197H8.47815C7.99988 10.8197 7.79456 11.4266 8.17461 11.717L9.81302 12.9686C9.97953 13.0958 10.0491 13.3134 9.9872 13.5136L9.37168 15.5054C9.22796 15.9705 9.76608 16.3459 10.1529 16.0504L11.6965 14.8712C11.8757 14.7343 12.1243 14.7343 12.3035 14.8712L13.8471 16.0504C14.2339 16.3459 14.772 15.9705 14.6283 15.5054L14.0128 13.5136C13.9509 13.3134 14.0205 13.0958 14.187 12.9686L15.8254 11.717C16.2054 11.4266 16.0001 10.8197 15.5218 10.8197H13.5492C13.3299 10.8197 13.1362 10.6768 13.0714 10.4673L12.4777 8.54591Z" fill="#132339"/>
</svg>
