<svg width="24" height="24" viewBox="0 0 24 24" fill="none" xmlns="http://www.w3.org/2000/svg">
<path fill-rule="evenodd" clip-rule="evenodd" d="M12 22C17.5228 22 22 17.5228 22 12C22 6.47715 17.5228 2 12 2C6.47715 2 2 6.47715 2 12C2 17.5228 6.47715 22 12 22ZM17.755 9.62269C18.1076 9.22356 18.0758 8.60881 17.684 8.2496C17.2922 7.89038 16.6887 7.92274 16.3361 8.32186L10.8252 14.6398L7.60723 11.6082C7.22267 11.2409 6.61867 11.2608 6.25814 11.6525C5.89762 12.0443 5.9171 12.6596 6.30166 13.0268L10.2302 16.737C10.4173 16.9157 10.6672 17.0102 10.9235 16.9991C11.1797 16.988 11.4208 16.8724 11.5924 16.6781L17.755 9.62269Z" fill="#132339"/>
</svg>
