<svg width="24" height="24" viewBox="0 0 24 24" fill="none" xmlns="http://www.w3.org/2000/svg">
<path d="M11.0915 4.28996C11.3775 3.37001 12.6226 3.37001 12.9085 4.28996L14.2366 8.56254C14.3645 8.97395 14.7313 9.2525 15.1451 9.2525H19.4429C20.3683 9.2525 20.753 10.4903 20.0044 11.0588L16.5274 13.6994C16.1926 13.9537 16.0525 14.4044 16.1804 14.8158L17.5085 19.0884C17.7944 20.0083 16.7871 20.7733 16.0385 20.2048L12.5615 17.5642C12.2267 17.3099 11.7733 17.3099 11.4385 17.5642L7.96152 20.2048C7.21287 20.7733 6.20557 20.0083 6.49153 19.0884L7.81963 14.8158C7.94751 14.4044 7.80742 13.9537 7.47261 13.6994L3.99561 11.0588C3.24696 10.4903 3.63172 9.2525 4.55709 9.2525H8.85491C9.26875 9.2525 9.63552 8.97395 9.76341 8.56254L11.0915 4.28996Z" fill="#132339"/>
</svg>
