<svg width="24" height="24" viewBox="0 0 24 24" fill="none" xmlns="http://www.w3.org/2000/svg">
<path d="M7.3989 3C4.87877 3 2.82826 5.03921 2.82826 7.54545C2.82826 10.0517 4.87877 12.0909 7.3989 12.0909C9.91903 12.0909 11.9695 10.0517 11.9695 7.54545C11.9695 5.03921 9.91903 3 7.3989 3Z" fill="#132339"/>
<path d="M17.4543 6.63637C15.4377 6.63637 13.7978 8.26722 13.7978 10.2727C13.7978 12.2782 15.4377 13.9091 17.4543 13.9091C19.4709 13.9091 21.1108 12.2782 21.1108 10.2727C21.1108 8.26722 19.4709 6.63637 17.4543 6.63637Z" fill="#132339"/>
<path d="M12.0346 13C10.8622 13.8222 9.26416 14.3333 7.5 14.3333C5.73584 14.3333 4.13777 13.8222 2.96541 13C1.75629 13.848 1 15.027 1 16.3333V20.3333C1 20.7018 1.41532 21 1.92857 21H13.0714C13.5847 21 14 20.7018 14 20.3333V16.3333C14 15.027 13.2437 13.848 12.0346 13Z" fill="#132339"/>
<path d="M21.4223 14C20.3567 14.853 18.8305 15.4 17.1178 15.4C16.3865 15.4 15.6931 15.2912 15.0478 15.1126C15.1246 15.4362 15.1786 15.7641 15.1786 16.1V20.3C15.1786 20.5466 15.1087 20.78 15 21H22.0304C22.5663 21 23 20.6869 23 20.3V16.8C23 15.7204 22.3526 14.7448 21.4223 14Z" fill="#132339"/>
</svg>
