<svg width="295" height="148" viewBox="0 0 295 148" fill="none" xmlns="http://www.w3.org/2000/svg">
<g clip-path="url(#clip0_5066_12275)">
<ellipse cx="26.5" cy="27.5" rx="26.5" ry="27.5" transform="matrix(-1 0 0 1 295 -21)" fill="url(#paint0_linear_5066_12275)" fill-opacity="0.2"/>
<ellipse cx="26.5" cy="28" rx="26.5" ry="28" transform="matrix(-1 0 0 1 295 112)" fill="url(#paint1_linear_5066_12275)" fill-opacity="0.2"/>
<ellipse cx="27" cy="27.5" rx="27" ry="27.5" transform="matrix(-1 0 0 1 242 78.0001)" fill="url(#paint2_linear_5066_12275)" fill-opacity="0.2"/>
<ellipse cx="26.5" cy="27" rx="26.5" ry="27" transform="matrix(-1 0 0 1 295 46.0001)" fill="url(#paint3_linear_5066_12275)" fill-opacity="0.2"/>
<ellipse cx="27" cy="26.5" rx="27" ry="26.5" transform="matrix(-1 0 0 1 242 13.0001)" fill="url(#paint4_linear_5066_12275)" fill-opacity="0.2"/>
</g>
<defs>
<linearGradient id="paint0_linear_5066_12275" x1="26.5" y1="0" x2="26.5" y2="55" gradientUnits="userSpaceOnUse">
<stop stop-color="white"/>
<stop offset="1" stop-color="white" stop-opacity="0"/>
</linearGradient>
<linearGradient id="paint1_linear_5066_12275" x1="26.5" y1="0" x2="26.5" y2="56" gradientUnits="userSpaceOnUse">
<stop stop-color="white"/>
<stop offset="1" stop-color="white" stop-opacity="0"/>
</linearGradient>
<linearGradient id="paint2_linear_5066_12275" x1="27" y1="0" x2="27" y2="55" gradientUnits="userSpaceOnUse">
<stop stop-color="white"/>
<stop offset="1" stop-color="white" stop-opacity="0"/>
</linearGradient>
<linearGradient id="paint3_linear_5066_12275" x1="26.5" y1="0" x2="26.5" y2="54" gradientUnits="userSpaceOnUse">
<stop stop-color="white"/>
<stop offset="1" stop-color="white" stop-opacity="0"/>
</linearGradient>
<linearGradient id="paint4_linear_5066_12275" x1="27" y1="0" x2="27" y2="53" gradientUnits="userSpaceOnUse">
<stop stop-color="white"/>
<stop offset="1" stop-color="white" stop-opacity="0"/>
</linearGradient>
<clipPath id="clip0_5066_12275">
<rect width="295" height="148" fill="white"/>
</clipPath>
</defs>
</svg>
