<svg width="24" height="24" viewBox="0 0 24 24" fill="none" xmlns="http://www.w3.org/2000/svg">
<path fill-rule="evenodd" clip-rule="evenodd" d="M4.99962 6C4.44758 6 4 6.44747 4 7V19C4 19.5523 4.44772 20 5 20H17C17.5523 20 18 19.5523 18 19V16C18 15.4477 18.4477 15 19 15C19.5523 15 20 15.4477 20 16V19C20 20.6569 18.6569 22 17 22H5C3.34315 22 2 20.6569 2 19V7C2 5.3434 3.34251 4 4.99962 4H8C8.55228 4 9 4.44772 9 5C9 5.55228 8.55228 6 8 6H4.99962Z" fill="#132339"/>
<path fill-rule="evenodd" clip-rule="evenodd" d="M12 2H21C21.5523 2 22 2.44772 22 3V12C22 12.5523 21.5523 13 21 13C20.4477 13 20 12.5523 20 12V5.41421L12.7071 12.7071C12.3166 13.0976 11.6834 13.0976 11.2929 12.7071C10.9024 12.3166 10.9024 11.6834 11.2929 11.2929L18.5858 4H12C11.4477 4 11 3.55228 11 3C11 2.44772 11.4477 2 12 2Z" fill="#132339"/>
</svg>
