<svg width="24" height="24" viewBox="0 0 24 24" fill="none" xmlns="http://www.w3.org/2000/svg">
<path d="M8 5C7.44772 5 7 5.44772 7 6H17C17 5.44772 16.5523 5 16 5H8Z" fill="#132339"/>
<path fill-rule="evenodd" clip-rule="evenodd" d="M5.92898 7.9233C5.96905 7.40231 6.4035 7 6.92603 7H17.074C17.5965 7 18.0309 7.40231 18.071 7.9233L18.9172 18.9233C18.9619 19.5041 18.5026 20 17.9201 20H6.07988C5.49737 20 5.03815 19.5041 5.08282 18.9233L5.92898 7.9233ZM9.5 9.5C9.77614 9.5 10 9.72386 10 10V10.5C10 11.6046 10.8954 12.5 12 12.5C13.1046 12.5 14 11.6046 14 10.5V10C14 9.72386 14.2239 9.5 14.5 9.5C14.7761 9.5 15 9.72386 15 10V10.5C15 12.1569 13.6569 13.5 12 13.5C10.3431 13.5 9 12.1569 9 10.5V10C9 9.72386 9.22386 9.5 9.5 9.5Z" fill="#132339"/>
</svg>
