<svg width="24" height="24" viewBox="0 0 24 24" fill="none" xmlns="http://www.w3.org/2000/svg">
<path d="M12 20C12 19.4477 11.5523 19 11 19L6 19C5.44771 19 5 18.5523 5 18L5 6C5 5.44771 5.44772 5 6 5L11 5C11.5523 5 12 4.55228 12 4C12 3.44771 11.5523 3 11 3L5 3C3.9 3 3 3.9 3 5L3 19C3 20.1 3.9 21 5 21L11 21C11.5523 21 12 20.5523 12 20ZM11.33 13L13.207 14.8843C13.5955 15.2743 13.5949 15.9051 13.2057 16.2943C12.8159 16.6841 12.1841 16.6841 11.7943 16.2943L8.20711 12.7071C7.81658 12.3166 7.81658 11.6834 8.20711 11.2929L11.7943 7.70568C12.1841 7.31594 12.8159 7.31594 13.2057 7.70568C13.5949 8.09489 13.5955 8.72572 13.207 9.11568L11.33 11L20 11C20.5523 11 21 11.4477 21 12C21 12.5523 20.5523 13 20 13L11.33 13Z" fill="#132339"/>
</svg>
