<svg width="24" height="24" viewBox="0 0 24 24" fill="none" xmlns="http://www.w3.org/2000/svg">
<path d="M20 12C19.4477 12 19 12.4477 19 13V18C19 18.5523 18.5523 19 18 19H6C5.44772 19 5 18.5523 5 18V13C5 12.4477 4.55228 12 4 12C3.44772 12 3 12.4477 3 13V19C3 20.1 3.9 21 5 21H19C20.1 21 21 20.1 21 19V13C21 12.4477 20.5523 12 20 12ZM13 12.67L14.8843 10.793C15.2743 10.4045 15.9051 10.4051 16.2943 10.7943C16.6841 11.1841 16.6841 11.8159 16.2943 12.2057L12.7071 15.7929C12.3166 16.1834 11.6834 16.1834 11.2929 15.7929L7.70568 12.2057C7.31594 11.8159 7.31594 11.1841 7.70568 10.7943C8.09489 10.4051 8.72572 10.4045 9.11568 10.793L11 12.67V4C11 3.44771 11.4477 3 12 3C12.5523 3 13 3.44772 13 4V12.67Z" fill="#132339"/>
</svg>
