<svg width="248" height="314" viewBox="0 0 248 314" fill="none" xmlns="http://www.w3.org/2000/svg">
<g clip-path="url(#clip0_5066_9570)">
<ellipse cx="48" cy="50" rx="48" ry="50" transform="matrix(-1 0 0 1 248 -15.0001)" fill="url(#paint0_linear_5066_9570)" fill-opacity="0.2"/>
<ellipse cx="48" cy="50.5" rx="48" ry="50.5" transform="matrix(-1 0 0 1 248 227)" fill="url(#paint1_linear_5066_9570)" fill-opacity="0.2"/>
<ellipse cx="49" cy="49.5" rx="49" ry="49.5" transform="matrix(-1 0 0 1 152 165)" fill="url(#paint2_linear_5066_9570)" fill-opacity="0.2"/>
<ellipse cx="48" cy="49" rx="48" ry="49" transform="matrix(-1 0 0 1 248 107)" fill="url(#paint3_linear_5066_9570)" fill-opacity="0.2"/>
<ellipse cx="49" cy="48" rx="49" ry="48" transform="matrix(-1 0 0 1 152 45.9999)" fill="url(#paint4_linear_5066_9570)" fill-opacity="0.2"/>
</g>
<defs>
<linearGradient id="paint0_linear_5066_9570" x1="48" y1="0" x2="48" y2="100" gradientUnits="userSpaceOnUse">
<stop stop-color="white"/>
<stop offset="1" stop-color="white" stop-opacity="0"/>
</linearGradient>
<linearGradient id="paint1_linear_5066_9570" x1="48" y1="0" x2="48" y2="101" gradientUnits="userSpaceOnUse">
<stop stop-color="white"/>
<stop offset="1" stop-color="white" stop-opacity="0"/>
</linearGradient>
<linearGradient id="paint2_linear_5066_9570" x1="49" y1="0" x2="49" y2="99" gradientUnits="userSpaceOnUse">
<stop stop-color="white"/>
<stop offset="1" stop-color="white" stop-opacity="0"/>
</linearGradient>
<linearGradient id="paint3_linear_5066_9570" x1="48" y1="0" x2="48" y2="98" gradientUnits="userSpaceOnUse">
<stop stop-color="white"/>
<stop offset="1" stop-color="white" stop-opacity="0"/>
</linearGradient>
<linearGradient id="paint4_linear_5066_9570" x1="49" y1="0" x2="49" y2="96" gradientUnits="userSpaceOnUse">
<stop stop-color="white"/>
<stop offset="1" stop-color="white" stop-opacity="0"/>
</linearGradient>
<clipPath id="clip0_5066_9570">
<rect width="248" height="314" fill="white"/>
</clipPath>
</defs>
</svg>
