<svg width="24" height="24" viewBox="0 0 24 24" fill="none" xmlns="http://www.w3.org/2000/svg">
<path d="M16.9582 20.5C16.9582 20.7761 17.182 21 17.4582 21H18.3164C19.0036 21 19.5682 20.4761 19.65 19.8049L20.945 6.86493C20.9744 6.57058 20.7433 6.31514 20.4475 6.31514H16.9091V3.80591C16.9091 3.36082 16.5483 3 16.1032 3V3C15.6581 3 15.2973 3.36082 15.2973 3.80591V6.31514H11.7991C11.4977 6.31514 11.2648 6.57977 11.3031 6.8787L11.4764 8.23056C12.8755 8.61528 14.1845 9.31105 14.97 10.0805C16.1482 11.2428 16.9582 12.4461 16.9582 14.4106V20.5ZM3 20.1814V19.8711C3 19.5949 3.22386 19.3711 3.5 19.3711H14.7973C15.0734 19.3711 15.2973 19.5949 15.2973 19.8711V20.1814C15.2973 20.6317 14.9291 21 14.4709 21H3.82636C3.36818 21 3 20.6317 3 20.1814ZM14.7973 14.4516C15.0734 14.4516 15.3002 14.2246 15.2723 13.9499C14.6772 8.07037 3.62009 8.07037 3.02493 13.9499C2.99712 14.2246 3.22386 14.4516 3.5 14.4516H14.7973ZM3.01636 16.5969C3.01636 16.3207 3.24022 16.0969 3.51636 16.0969H14.7891C15.0652 16.0969 15.2891 16.3207 15.2891 16.5969V17.234C15.2891 17.5101 15.0652 17.734 14.7891 17.734H3.51636C3.24022 17.734 3.01636 17.5101 3.01636 17.234V16.5969Z" fill="#132339"/>
</svg>
