<svg width="101" height="101" viewBox="0 0 101 101" fill="none" xmlns="http://www.w3.org/2000/svg">
    <defs>
        <linearGradient id="paint0_linear_15_220" x1="17" y1="0" x2="17" y2="35"
            gradientUnits="userSpaceOnUse">
            <stop stop-color="white" />
            <stop offset="1" stop-color="white" stop-opacity="0" />
        </linearGradient>
        <linearGradient id="paint1_linear_15_220" x1="17" y1="0" x2="17" y2="35"
            gradientUnits="userSpaceOnUse">
            <stop stop-color="white" />
            <stop offset="1" stop-color="white" stop-opacity="0" />
        </linearGradient>
        <linearGradient id="paint2_linear_15_220" x1="17" y1="0" x2="17" y2="35"
            gradientUnits="userSpaceOnUse">
            <stop stop-color="white" />
            <stop offset="1" stop-color="white" stop-opacity="0" />
        </linearGradient>
        <linearGradient id="paint3_linear_15_220" x1="17" y1="0" x2="17" y2="34"
            gradientUnits="userSpaceOnUse">
            <stop stop-color="white" />
            <stop offset="1" stop-color="white" stop-opacity="0" />
        </linearGradient>
        <linearGradient id="paint4_linear_15_220" x1="17" y1="0" x2="17" y2="34"
            gradientUnits="userSpaceOnUse">
            <stop stop-color="white" />
            <stop offset="1" stop-color="white" stop-opacity="0" />
        </linearGradient>
        <clipPath id="clip0_15_220">
            <rect width="101" height="101" fill="white" />
        </clipPath>
    </defs>
    <g clip-path="url(#clip0_15_220)">
        <ellipse rx="17" ry="17.5" transform="matrix(-1 0 0 1 92 8.5)"
            fill="url(#paint0_linear_15_220)" fill-opacity="0.2" />
        <ellipse rx="17" ry="17.5" transform="matrix(-1 0 0 1 92 93.5)"
            fill="url(#paint1_linear_15_220)" fill-opacity="0.2" />
        <ellipse rx="17" ry="17.5" transform="matrix(-1 0 0 1 58 71.5)"
            fill="url(#paint2_linear_15_220)" fill-opacity="0.2" />
        <circle r="17" transform="matrix(-1 0 0 1 92 51)" fill="url(#paint3_linear_15_220)"
            fill-opacity="0.2" />
        <circle r="17" transform="matrix(-1 0 0 1 58 29)" fill="url(#paint4_linear_15_220)"
            fill-opacity="0.2" />
    </g>
</svg>
